<svg xmlns="http://www.w3.org/2000/svg" xmlns:svg="http://www.w3.org/2000/svg" id="svg2" version="1.0" viewBox="0 0 128 128"><g id="layer1"><g id="g2908" transform="translate(1.3585 1.3585)"><path id="path2906" fill="#f0f" fill-rule="evenodd" d="m28.058 37.827c-2.773 4.152-4.496 9.969-4.496 17.829v47.184c0 10.45 7.146 18.88 16 18.88h48.157c8.854 0 15.971-8.43 15.971-18.88v-47.184c0.22-6.636-0.78-12.837-3.61-17.575-36.761-0.246-39.941-0.174-72.022-0.254z"/><path id="rect2312" fill="none" stroke="#000" stroke-linecap="round" stroke-linejoin="round" stroke-width="6" d="m46.013 17.693l0.018 11.401c-11.256-0.24-22.469 6.507-22.469 26.562v47.184c0 10.45 7.146 18.88 16 18.88h48.157c8.854 0 15.971-8.43 15.971-18.88v-47.184c0.48-14.291-4.702-26.562-21.721-26.562v-11.161l-35.956-0.24z"/><rect id="rect2894" width="79.182" height="48.923" x="24.289" y="55.028" fill="#fff" fill-rule="evenodd" stroke="#000" stroke-linecap="round" stroke-linejoin="round" stroke-width="6.067"/><path id="rect2896" fill="red" fill-rule="evenodd" stroke="#000" stroke-linecap="round" stroke-linejoin="round" stroke-width="4" d="m56.219 62.969v8.75h-8.75v15.781h8.75v8.75h15.781v-8.75h8.781v-15.781h-8.781v-8.75h-15.781z"/><rect id="rect2901" width="45.904" height="16.365" x="41.288" y="3.585" fill="#b3b3b3" fill-rule="evenodd" stroke="#000" stroke-linecap="round" stroke-linejoin="round" stroke-width="6.685"/></g></g><metadata/></svg>